<mxfile modified="2023-03-15T22:07:33.106Z" host="Electron" agent="5.0 (Windows NT 10.0; Win64; x64) AppleWebKit/537.36 (KHTML, like Gecko) draw.io/20.3.0 Chrome/104.0.5112.114 Electron/20.1.3 Safari/537.36" etag="RKrfEB2nCXW8tH6-IFp0" compressed="false" version="20.3.0" type="device">
  <diagram id="FZIw7umQj6EEWO0zANgz" name="Tags">
    <mxGraphModel dx="782" dy="517" grid="1" gridSize="10" guides="1" tooltips="1" connect="1" arrows="1" fold="1" page="1" pageScale="1" pageWidth="827" pageHeight="1169" math="0" shadow="0">
      <root>
        <mxCell id="I90MQL6RxVj9hhBw1dbk-0" />
        <mxCell id="I90MQL6RxVj9hhBw1dbk-1" parent="I90MQL6RxVj9hhBw1dbk-0" />
        <mxCell id="rmRqgsZCKtMQFMqzM6kI-0" value="" style="fontStyle=1;align=center;verticalAlign=top;childLayout=stackLayout;horizontal=1;horizontalStack=0;resizeParent=1;resizeParentMax=0;resizeLast=0;marginBottom=0;strokeColor=#82b366;strokeWidth=2;fillColor=none;" parent="I90MQL6RxVj9hhBw1dbk-1" vertex="1">
          <mxGeometry x="240" y="240" width="120" height="63" as="geometry" />
        </mxCell>
        <mxCell id="rmRqgsZCKtMQFMqzM6kI-1" value="Tag an Item" style="html=1;align=left;spacingLeft=4;verticalAlign=middle;strokeColor=none;fillColor=none;fontStyle=1" parent="rmRqgsZCKtMQFMqzM6kI-0" vertex="1">
          <mxGeometry width="120" height="30" as="geometry" />
        </mxCell>
        <mxCell id="rmRqgsZCKtMQFMqzM6kI-2" value="" style="shape=ellipse;" parent="rmRqgsZCKtMQFMqzM6kI-1" vertex="1">
          <mxGeometry x="1" width="10" height="16" relative="1" as="geometry">
            <mxPoint x="-25" y="7" as="offset" />
          </mxGeometry>
        </mxCell>
        <mxCell id="rmRqgsZCKtMQFMqzM6kI-3" value="" style="line;strokeWidth=1;fillColor=none;align=left;verticalAlign=middle;spacingTop=-1;spacingLeft=3;spacingRight=3;rotatable=0;labelPosition=right;points=[];portConstraint=eastwest;" parent="rmRqgsZCKtMQFMqzM6kI-0" vertex="1">
          <mxGeometry y="30" width="120" height="8" as="geometry" />
        </mxCell>
        <mxCell id="rmRqgsZCKtMQFMqzM6kI-4" value="." style="html=1;align=center;spacingLeft=4;verticalAlign=top;strokeColor=none;fillColor=none;" parent="rmRqgsZCKtMQFMqzM6kI-0" vertex="1">
          <mxGeometry y="38" width="120" height="25" as="geometry" />
        </mxCell>
        <mxCell id="rmRqgsZCKtMQFMqzM6kI-18" style="edgeStyle=none;rounded=0;orthogonalLoop=1;jettySize=auto;html=1;entryX=0.5;entryY=1;entryDx=0;entryDy=0;endArrow=block;endFill=0;" parent="I90MQL6RxVj9hhBw1dbk-1" source="rmRqgsZCKtMQFMqzM6kI-5" target="rmRqgsZCKtMQFMqzM6kI-16" edge="1">
          <mxGeometry relative="1" as="geometry" />
        </mxCell>
        <mxCell id="rmRqgsZCKtMQFMqzM6kI-20" style="edgeStyle=none;rounded=0;orthogonalLoop=1;jettySize=auto;html=1;entryX=0;entryY=0;entryDx=0;entryDy=0;entryPerimeter=0;endArrow=open;endFill=0;" parent="I90MQL6RxVj9hhBw1dbk-1" source="rmRqgsZCKtMQFMqzM6kI-5" target="rmRqgsZCKtMQFMqzM6kI-9" edge="1">
          <mxGeometry relative="1" as="geometry" />
        </mxCell>
        <mxCell id="rmRqgsZCKtMQFMqzM6kI-5" value="&lt;p style=&quot;line-height: 100%&quot;&gt;&amp;lt;&amp;lt;actor&amp;gt;&amp;gt;&lt;br&gt;&lt;br&gt;&lt;b&gt;Group Tag&lt;br&gt;Admin&lt;/b&gt;&lt;/p&gt;" style="text;html=1;align=center;verticalAlign=middle;dashed=0;strokeColor=#000000;strokeWidth=2;" parent="I90MQL6RxVj9hhBw1dbk-1" vertex="1">
          <mxGeometry x="120" y="350" width="80" height="60" as="geometry" />
        </mxCell>
        <mxCell id="rmRqgsZCKtMQFMqzM6kI-6" value="" style="fontStyle=1;align=center;verticalAlign=top;childLayout=stackLayout;horizontal=1;horizontalStack=0;resizeParent=1;resizeParentMax=0;resizeLast=0;marginBottom=0;strokeColor=#82b366;strokeWidth=2;fillColor=none;" parent="I90MQL6RxVj9hhBw1dbk-1" vertex="1">
          <mxGeometry x="240" y="350" width="120" height="63" as="geometry" />
        </mxCell>
        <mxCell id="rmRqgsZCKtMQFMqzM6kI-7" value="Tag &lt;br&gt;Management" style="html=1;align=left;spacingLeft=4;verticalAlign=middle;strokeColor=none;fillColor=none;fontStyle=1" parent="rmRqgsZCKtMQFMqzM6kI-6" vertex="1">
          <mxGeometry width="120" height="30" as="geometry" />
        </mxCell>
        <mxCell id="rmRqgsZCKtMQFMqzM6kI-8" value="" style="shape=ellipse;" parent="rmRqgsZCKtMQFMqzM6kI-7" vertex="1">
          <mxGeometry x="1" width="10" height="16" relative="1" as="geometry">
            <mxPoint x="-25" y="7" as="offset" />
          </mxGeometry>
        </mxCell>
        <mxCell id="rmRqgsZCKtMQFMqzM6kI-9" value="" style="line;strokeWidth=1;fillColor=none;align=left;verticalAlign=middle;spacingTop=-1;spacingLeft=3;spacingRight=3;rotatable=0;labelPosition=right;points=[];portConstraint=eastwest;" parent="rmRqgsZCKtMQFMqzM6kI-6" vertex="1">
          <mxGeometry y="30" width="120" height="8" as="geometry" />
        </mxCell>
        <mxCell id="rmRqgsZCKtMQFMqzM6kI-10" value="." style="html=1;align=center;spacingLeft=4;verticalAlign=top;strokeColor=none;fillColor=none;" parent="rmRqgsZCKtMQFMqzM6kI-6" vertex="1">
          <mxGeometry y="38" width="120" height="25" as="geometry" />
        </mxCell>
        <mxCell id="rmRqgsZCKtMQFMqzM6kI-19" style="edgeStyle=none;rounded=0;orthogonalLoop=1;jettySize=auto;html=1;entryX=0;entryY=0;entryDx=0;entryDy=0;endArrow=open;endFill=0;" parent="I90MQL6RxVj9hhBw1dbk-1" source="rmRqgsZCKtMQFMqzM6kI-16" target="rmRqgsZCKtMQFMqzM6kI-4" edge="1">
          <mxGeometry relative="1" as="geometry" />
        </mxCell>
        <mxCell id="rmRqgsZCKtMQFMqzM6kI-16" value="&lt;p style=&quot;line-height: 100%&quot;&gt;&amp;lt;&amp;lt;actor&amp;gt;&amp;gt;&lt;br&gt;&lt;br&gt;&lt;b&gt;Group&lt;br&gt;Member&lt;/b&gt;&lt;/p&gt;" style="text;html=1;align=center;verticalAlign=middle;dashed=0;strokeColor=#000000;strokeWidth=2;" parent="I90MQL6RxVj9hhBw1dbk-1" vertex="1">
          <mxGeometry x="120" y="243" width="80" height="60" as="geometry" />
        </mxCell>
        <mxCell id="6iF4gy5RhbDNfGiQrfCW-0" value="Title" parent="I90MQL6RxVj9hhBw1dbk-0" visible="0" />
        <mxCell id="1rFRM2pLISEZPAcxCDYn-11" value="&lt;font style=&quot;font-size: 12px&quot;&gt;&lt;span style=&quot;font-size: 12px&quot;&gt;Diagram: Base System Logical Module -&amp;nbsp;&lt;/span&gt;&lt;span style=&quot;font-size: 12px&quot;&gt;Functionality -&amp;nbsp;&lt;/span&gt;Organisation Tags&lt;/font&gt;" style="text;strokeColor=none;fillColor=none;html=1;fontSize=12;fontStyle=2;verticalAlign=middle;align=left;shadow=0;glass=0;comic=0;opacity=30;fontColor=#808080;" parent="6iF4gy5RhbDNfGiQrfCW-0" vertex="1">
          <mxGeometry x="120" y="460" width="560" height="20" as="geometry" />
        </mxCell>
        <mxCell id="6iF4gy5RhbDNfGiQrfCW-1" value="Notes" parent="I90MQL6RxVj9hhBw1dbk-0" />
        <mxCell id="1rFRM2pLISEZPAcxCDYn-6" value="Tag Management includes creation of Aliases&amp;nbsp; (&quot;Mgmt&quot; for &quot;Management&quot;)" style="shape=note;whiteSpace=wrap;html=1;size=14;verticalAlign=top;align=left;spacingTop=-6;strokeColor=#999999;strokeWidth=1;fillColor=none;fontFamily=Helvetica;fontSize=12;fontColor=#000000;" parent="6iF4gy5RhbDNfGiQrfCW-1" vertex="1">
          <mxGeometry x="400" y="351.5" width="160" height="40" as="geometry" />
        </mxCell>
        <mxCell id="rmRqgsZCKtMQFMqzM6kI-21" value="As Groups, Tags are enheritable - but can be&amp;nbsp; duplicated as well (they&#39;re just pre-agreed search terms after all). Note that Tags are not easily Localisable.." style="shape=note;whiteSpace=wrap;html=1;size=14;verticalAlign=top;align=left;spacingTop=-6;strokeColor=#999999;strokeWidth=1;fillColor=none;fontFamily=Helvetica;fontSize=12;fontColor=#000000;" parent="6iF4gy5RhbDNfGiQrfCW-1" vertex="1">
          <mxGeometry x="400" y="240" width="160" height="90" as="geometry" />
        </mxCell>
      </root>
    </mxGraphModel>
  </diagram>
</mxfile>
